<?xml version="1.0" standalone="no"?>
<!DOCTYPE svg PUBLIC "-//W3C//DTD SVG 20010904//EN"
 "http://www.w3.org/TR/2001/REC-SVG-20010904/DTD/svg10.dtd">
<svg version="1.0" xmlns="http://www.w3.org/2000/svg"
 width="595.000000pt" height="595.000000pt" viewBox="0 0 595.000000 595.000000"
 preserveAspectRatio="xMidYMid meet">
<metadata>
Created by potrace 1.14, written by Peter Selinger 2001-2017
</metadata>
<g transform="translate(0.000000,595.000000) scale(0.100000,-0.100000)"
fill="#000000" stroke="none">
<path d="M2887 5944 c-1 -1 -49 -4 -107 -8 -58 -4 -121 -8 -140 -11 -19 -2
-57 -7 -85 -10 -311 -37 -737 -181 -1030 -348 -87 -49 -285 -174 -295 -186 -3
-3 -32 -26 -65 -51 -383 -285 -736 -741 -929 -1203 -74 -175 -155 -443 -181
-597 -3 -19 -8 -42 -10 -50 -2 -8 -7 -42 -11 -75 -3 -33 -8 -69 -10 -79 -23
-124 -23 -635 1 -709 2 -7 6 -34 9 -62 6 -54 11 -83 26 -160 6 -27 12 -59 14
-70 14 -72 83 -309 105 -360 5 -11 19 -47 31 -80 39 -105 176 -376 245 -485
152 -240 375 -501 564 -660 29 -25 59 -50 65 -55 39 -35 154 -121 226 -169 47
-31 90 -59 96 -64 39 -27 207 -119 301 -163 199 -94 438 -174 648 -217 97 -20
284 -50 315 -50 8 0 51 -3 95 -7 44 -4 136 -7 205 -7 113 -1 163 2 340 18 115
10 358 59 475 94 141 43 185 58 291 101 211 83 399 185 604 327 52 36 100 71
106 77 6 5 42 35 79 65 80 65 273 251 340 330 26 30 57 66 69 80 62 72 246
338 246 355 0 5 6 16 14 24 23 26 121 219 164 321 46 112 54 132 58 145 1 6
16 49 33 97 26 75 45 139 68 233 14 56 44 216 49 260 3 28 8 57 10 65 18 53
25 494 11 650 -9 106 -14 139 -37 265 -23 121 -21 111 -64 275 -61 232 -194
530 -345 769 -406 645 -1044 1108 -1786 1295 -55 14 -111 27 -125 29 -14 3
-43 8 -65 12 -22 4 -49 9 -60 11 -20 4 -70 11 -135 19 -84 10 -415 25 -423 19z"/>
</g>
</svg>
